<?xml version="1.0" encoding="utf-8"?>
<!-- Generator: Adobe Illustrator 24.3.0, SVG Export Plug-In . SVG Version: 6.00 Build 0)  -->
<svg version="1.1" id="Layer_1" xmlns="http://www.w3.org/2000/svg" xmlns:xlink="http://www.w3.org/1999/xlink" x="0px" y="0px"
	 viewBox="0 0 612 792" style="enable-background:new 0 0 612 792;" xml:space="preserve">
<style type="text/css">
	.st0{fill:#FFFF33;stroke:#231F20;stroke-miterlimit:10;}
	.st1{fill:#C4202C;stroke:#231F20;stroke-miterlimit:10;}
	.st2{fill:#961222;stroke:#231F20;stroke-miterlimit:10;}
	.st3{fill:#DC2B00;stroke:#231F20;stroke-miterlimit:10;}
</style>
<g>
	<polygon class="st0" points="109.9,712.65 30.08,709.3 -6.93,638.5 35.88,571.05 115.7,574.39 152.71,645.19 	"/>
	<polygon class="st1" points="152.71,645.19 109.9,712.65 30.08,709.3 68.07,641.85 	"/>
	<polygon class="st2" points="-6.93,638.5 30.08,709.3 68.07,641.85 35.88,571.05 	"/>
	<polygon class="st3" points="115.7,574.39 152.71,645.19 68.07,641.85 35.88,571.05 	"/>
</g>
<g>
	<polygon class="st0" points="275.89,715.99 196.07,712.65 159.06,641.85 201.87,574.39 281.69,577.74 318.7,648.54 	"/>
	<polygon class="st1" points="318.7,648.54 275.89,715.99 196.07,712.65 234.06,645.19 	"/>
	<polygon class="st2" points="159.06,641.85 196.07,712.65 234.06,645.19 201.87,574.39 	"/>
	<polygon class="st3" points="281.69,577.74 318.7,648.54 234.06,645.19 201.87,574.39 	"/>
</g>
<g>
	<polygon class="st0" points="448.51,719.34 368.68,715.99 331.67,645.19 374.48,577.74 454.3,581.09 491.32,651.89 	"/>
	<polygon class="st1" points="491.32,651.89 448.51,719.34 368.68,715.99 406.68,648.54 	"/>
	<polygon class="st2" points="331.67,645.19 368.68,715.99 406.68,648.54 374.48,577.74 	"/>
	<polygon class="st3" points="454.3,581.09 491.32,651.89 406.68,648.54 374.48,577.74 	"/>
</g>
<g>
	<g>
		<g>
			<polygon class="st0" points="129.41,158.28 49.59,154.9 12.57,83.26 55.38,15.01 135.21,18.39 172.22,90.03 			"/>
			<polygon class="st1" points="172.22,90.03 129.41,158.28 49.59,154.9 87.58,86.65 			"/>
			<polygon class="st2" points="12.57,83.26 49.59,154.9 87.58,86.65 55.38,15.01 			"/>
			<polygon class="st3" points="135.21,18.39 172.22,90.03 87.58,86.65 55.38,15.01 			"/>
		</g>
		<g>
			<polygon class="st0" points="124.59,297.37 44.77,294.03 7.75,223.23 50.56,155.77 130.39,159.12 167.4,229.92 			"/>
			<polygon class="st1" points="167.4,229.92 124.59,297.37 44.77,294.03 82.76,226.57 			"/>
			<polygon class="st2" points="7.75,223.23 44.77,294.03 82.76,226.57 50.56,155.77 			"/>
			<polygon class="st3" points="130.39,159.12 167.4,229.92 82.76,226.57 50.56,155.77 			"/>
		</g>
	</g>
	<g>
		<g>
			<polygon class="st0" points="122.18,434.71 42.36,431.33 5.35,359.69 48.15,291.44 127.98,294.82 164.99,366.46 			"/>
			<polygon class="st1" points="164.99,366.46 122.18,434.71 42.36,431.33 80.35,363.08 			"/>
			<polygon class="st2" points="5.35,359.69 42.36,431.33 80.35,363.08 48.15,291.44 			"/>
			<polygon class="st3" points="127.98,294.82 164.99,366.46 80.35,363.08 48.15,291.44 			"/>
		</g>
		<g>
			<polygon class="st0" points="117.36,573.8 37.54,570.46 0.53,499.66 43.34,432.2 123.16,435.55 160.17,506.35 			"/>
			<polygon class="st1" points="160.17,506.35 117.36,573.8 37.54,570.46 75.53,503 			"/>
			<polygon class="st2" points="0.53,499.66 37.54,570.46 75.53,503 43.34,432.2 			"/>
			<polygon class="st3" points="123.16,435.55 160.17,506.35 75.53,503 43.34,432.2 			"/>
		</g>
	</g>
</g>
<g>
	<g>
		<g>
			<polygon class="st0" points="292.76,166.16 212.93,162.77 175.92,91.13 218.73,22.88 298.55,26.27 335.57,97.91 			"/>
			<polygon class="st1" points="335.57,97.91 292.76,166.16 212.93,162.77 250.93,94.52 			"/>
			<polygon class="st2" points="175.92,91.13 212.93,162.77 250.93,94.52 218.73,22.88 			"/>
			<polygon class="st3" points="298.55,26.27 335.57,97.91 250.93,94.52 218.73,22.88 			"/>
		</g>
		<g>
			<polygon class="st0" points="287.94,305.25 208.12,301.9 171.1,231.1 213.91,163.65 293.73,166.99 330.75,237.8 			"/>
			<polygon class="st1" points="330.75,237.8 287.94,305.25 208.12,301.9 246.11,234.45 			"/>
			<polygon class="st2" points="171.1,231.1 208.12,301.9 246.11,234.45 213.91,163.65 			"/>
			<polygon class="st3" points="293.73,166.99 330.75,237.8 246.11,234.45 213.91,163.65 			"/>
		</g>
	</g>
	<g>
		<g>
			<polygon class="st0" points="285.53,442.59 205.71,439.2 168.69,367.56 211.5,299.31 291.33,302.7 328.34,374.34 			"/>
			<polygon class="st1" points="328.34,374.34 285.53,442.59 205.71,439.2 243.7,370.95 			"/>
			<polygon class="st2" points="168.69,367.56 205.71,439.2 243.7,370.95 211.5,299.31 			"/>
			<polygon class="st3" points="291.33,302.7 328.34,374.34 243.7,370.95 211.5,299.31 			"/>
		</g>
		<g>
			<polygon class="st0" points="280.71,581.68 200.89,578.33 163.87,507.53 206.68,440.08 286.51,443.42 323.52,514.23 			"/>
			<polygon class="st1" points="323.52,514.23 280.71,581.68 200.89,578.33 238.88,510.88 			"/>
			<polygon class="st2" points="163.87,507.53 200.89,578.33 238.88,510.88 206.68,440.08 			"/>
			<polygon class="st3" points="286.51,443.42 323.52,514.23 238.88,510.88 206.68,440.08 			"/>
		</g>
	</g>
</g>
<g>
	<g>
		<g>
			<polygon class="st0" points="465.37,169.13 385.55,165.74 348.54,94.1 391.35,25.85 471.17,29.24 508.18,100.88 			"/>
			<polygon class="st1" points="508.18,100.88 465.37,169.13 385.55,165.74 423.54,97.49 			"/>
			<polygon class="st2" points="348.54,94.1 385.55,165.74 423.54,97.49 391.35,25.85 			"/>
			<polygon class="st3" points="471.17,29.24 508.18,100.88 423.54,97.49 391.35,25.85 			"/>
		</g>
		<g>
			<polygon class="st0" points="460.55,308.22 380.73,304.87 343.72,234.07 386.53,166.62 466.35,169.96 503.36,240.76 			"/>
			<polygon class="st1" points="503.36,240.76 460.55,308.22 380.73,304.87 418.72,237.42 			"/>
			<polygon class="st2" points="343.72,234.07 380.73,304.87 418.72,237.42 386.53,166.62 			"/>
			<polygon class="st3" points="466.35,169.96 503.36,240.76 418.72,237.42 386.53,166.62 			"/>
		</g>
	</g>
	<g>
		<g>
			<polygon class="st0" points="458.14,445.56 378.32,442.17 341.31,370.53 384.12,302.28 463.94,305.67 500.95,377.31 			"/>
			<polygon class="st1" points="500.95,377.31 458.14,445.56 378.32,442.17 416.31,373.92 			"/>
			<polygon class="st2" points="341.31,370.53 378.32,442.17 416.31,373.92 384.12,302.28 			"/>
			<polygon class="st3" points="463.94,305.67 500.95,377.31 416.31,373.92 384.12,302.28 			"/>
		</g>
		<g>
			<polygon class="st0" points="453.33,584.65 373.5,581.3 336.49,510.5 379.3,443.05 459.12,446.39 496.14,517.19 			"/>
			<polygon class="st1" points="496.14,517.19 453.33,584.65 373.5,581.3 411.49,513.85 			"/>
			<polygon class="st2" points="336.49,510.5 373.5,581.3 411.49,513.85 379.3,443.05 			"/>
			<polygon class="st3" points="459.12,446.39 496.14,517.19 411.49,513.85 379.3,443.05 			"/>
		</g>
	</g>
</g>
</svg>
